# File created by Blade
# Date/Time:  Thu Jan 22 15:33:09 2015
#---------------------------------------------------------
:version 1.10
:name HOM
:units
  mass 1.0
  length 1.000000
  angle deg
:documentation
     Acclaim Skeleton File
:root
   axis xyz
   order TX TY TZ RX RY RZ
   position 0.000000 0.000000 0.000000
   orientation 0 0 0
:bonedata
   begin
      id 1
      name RightUpLeg_dum
      direction -1.000000 0.000000 0.000000
      length 3.693983
      axis 0.0 0.0 0.0 xyz
   end
   begin
      id 2
      name LeftUpLeg_dum
      direction 1.000000 0.000000 0.000000
      length 3.693983
      axis 0.0 0.0 0.0 xyz
   end
   begin
      id 3
      name Spine_dum
      direction 0.000000 1.000000 0.000000
      length 2.392956
      axis 0.0 0.0 0.0 xyz
   end
   begin
      id 4
      name RightUpLeg
      direction 0.000000 -1.000000 0.000000
      length 15.795667
      axis 0.0 0.0 0.0 xyz
      dof rx ry rz
   end
   begin
      id 5
      name RightLeg
      direction 0.000000 -1.000000 0.000000
      length 14.766989
      axis 0.0 0.0 0.0 xyz
      dof rx ry rz
   end
   begin
      id 6
      name RightFoot
      direction 0.000000 -0.258819 0.965926
      length 4.962790
      axis 15.0 0.0 0.0 xyz
      dof rx ry rz
   end
   begin
      id 7
      name RightToeBase
      direction 0.000000 0.000000 1.000000
      length 2.952750
      axis 0.0 0.0 0.0 xyz
      dof rx ry rz
   end
   begin
      id 8
      name LeftUpLeg
      direction 0.000000 -1.000000 0.000000
      length 15.795667
      axis 0.0 0.0 0.0 xyz
      dof rx ry rz
   end
   begin
      id 9
      name LeftLeg
      direction 0.000000 -1.000000 0.000000
      length 14.766989
      axis 0.0 0.0 0.0 xyz
      dof rx ry rz
   end
   begin
      id 10
      name LeftFoot
      direction 0.000000 -0.258819 0.965926
      length 4.962790
      axis 15.0 0.0 0.0 xyz
      dof rx ry rz
   end
   begin
      id 11
      name LeftToeBase
      direction 0.000000 0.000000 1.000000
      length 2.952750
      axis 0.0 0.0 0.0 xyz
      dof rx ry rz
   end
   begin
      id 12
      name Spine
      direction 0.000000 1.000000 0.000000
      length 0.000000
      axis 0.0 0.0 0.0 xyz
      dof rx ry rz
   end
   begin
      id 13
      name Spine_dum1
      direction 0.000000 1.000000 0.000000
      length 13.207411
      axis 0.0 0.0 0.0 xyz
   end
   begin
      id 14
      name Spine_dum2
      direction 0.000000 1.000000 0.000000
      length 13.207411
      axis 0.0 0.0 0.0 xyz
   end
   begin
      id 15
      name Spine_dum3
      direction 0.000000 1.000000 0.000000
      length 19.250100
      axis 0.0 0.0 0.0 xyz
   end
   begin
      id 16
      name RightShoulder
      direction -1.000000 0.000000 0.000000
      length 8.140465
      axis 0.0 0.0 90.0 xyz
      dof rx ry rz
   end
   begin
      id 17
      name RightArm
      direction -1.000000 0.000000 0.000000
      length 10.649840
      axis 0.0 0.0 90.0 xyz
      dof rx ry rz
   end
   begin
      id 18
      name RightForeArm
      direction -1.000000 0.000000 0.000000
      length 8.304624
      axis 0.0 0.0 90.0 xyz
      dof ry rz rx
   end
   begin
      id 19
      name RightHand
      direction -1.000000 0.000000 0.000000
      length 0.000000
      axis 0.0 0.0 90.0 xyz
      dof rx ry rz
   end
   begin
      id 20
      name RightHand_dum1
      direction -1.000000 0.000000 0.000000
      length 3.937000
      axis 0.0 0.0 90.0 xyz
   end
   begin
      id 21
      name RightHand_dum2
      direction 0.000000 0.000000 0.000000
      length 0.000000
      axis 0.0 0.0 90.0 xyz
   end
   begin
      id 22
      name RightHandThumb1
      direction 0.000000 0.000000 1.000000
      length 3.937000
      axis 0.0 0.0 90.0 xyz
      dof rx rz ry
   end
   begin
      id 23
      name LeftShoulder
      direction 1.000000 0.000000 0.000000
      length 8.140465
      axis 0.0 0.0 -90.0 xyz
      dof rx ry rz
   end
   begin
      id 24
      name LeftArm
      direction 1.000000 0.000000 0.000000
      length 10.649840
      axis 0.0 0.0 -90.0 xyz
      dof rx ry rz
   end
   begin
      id 25
      name LeftForeArm
      direction 1.000000 0.000000 0.000000
      length 8.304624
      axis 0.0 0.0 -90.0 xyz
      dof ry rz rx
   end
   begin
      id 26
      name LeftHand
      direction 1.000000 0.000000 0.000000
      length 0.000000
      axis 0.0 0.0 -90.0 xyz
      dof rx ry rz
   end
   begin
      id 27
      name LeftHand_dum1
      direction 1.000000 0.000000 0.000000
      length 3.937000
      axis 0.0 0.0 -90.0 xyz
   end
   begin
      id 28
      name LeftHand_dum2
      direction 0.000000 0.000000 0.000000
      length 0.000000
      axis 0.0 0.0 -90.0 xyz
   end
   begin
      id 29
      name LeftHandThumb1
      direction 0.000000 0.000000 1.000000
      length 3.937000
      axis 0.0 0.0 -90.0 xyz
      dof rx rz ry
   end
   begin
      id 30
      name Head
      direction 0.000000 1.000000 0.000000
      length 4.527550
      axis 0.0 0.0 0.0 xyz
      dof rx ry rz
   end
:hierarchy
   begin
      root RightUpLeg_dum LeftUpLeg_dum Spine_dum
      RightUpLeg_dum RightUpLeg
      LeftUpLeg_dum LeftUpLeg
      Spine_dum Spine
      RightUpLeg RightLeg
      RightLeg RightFoot
      RightFoot RightToeBase
      LeftUpLeg LeftLeg
      LeftLeg LeftFoot
      LeftFoot LeftToeBase
      Spine Spine_dum1 Spine_dum2 Spine_dum3
      Spine_dum1 RightShoulder
      Spine_dum2 LeftShoulder
      Spine_dum3 Head
      RightShoulder RightArm
      RightArm RightForeArm
      RightForeArm RightHand
      RightHand RightHand_dum1 RightHand_dum2
      RightHand_dum2 RightHandThumb1
      LeftShoulder LeftArm
      LeftArm LeftForeArm
      LeftForeArm LeftHand
      LeftHand LeftHand_dum1 LeftHand_dum2
      LeftHand_dum2 LeftHandThumb1
   end

# File created by Blade
# Date/Time:  Thu Jan 22 15:33:01 2015
# Frame Rate: 120.000 fps
#------------------------------------------------------
:FULLY-SPECIFIED
:DEGREES
409
root -14.425863 3.645929 4.396393 117.480518 -79.001152 -153.879161
RightUpLeg -102.068562 9.113707 14.217847
RightLeg 125.466460 -0.000000 -0.000000
RightFoot -0.795503 -7.711151 13.733725
RightToeBase 19.084951 -0.000000 -0.000000
LeftUpLeg -106.434835 9.620798 6.143392
LeftLeg 128.428638 -0.000000 -0.000000
LeftFoot 2.977052 -7.314835 9.753135
LeftToeBase 3.081831 -0.000000 -0.000000
Spine 25.098426 10.685576 7.518888
RightShoulder -6.767693 -14.055968 -20.177882
RightArm -58.126409 -74.572164 150.568227
RightForeArm -5.219618 -0.000000 23.617161
RightHand 20.416275 -0.000000 -10.039223
RightHandThumb1 -24.326973 -0.000000 -32.862282
LeftShoulder 5.329249 26.913839 30.122716
LeftArm 11.962655 87.098386 -86.126598
LeftForeArm 35.354203 0.000000 19.184222
LeftHand -36.015567 0.000000 19.908299
LeftHandThumb1 -26.253704 0.000000 33.147579
Head 49.848214 -5.731088 13.896634
410
root -14.560019 3.652100 4.377603 117.781402 -78.981099 -154.329806
RightUpLeg -102.020411 9.243377 14.310252
RightLeg 125.989562 -0.000000 -0.000000
RightFoot -1.187876 -7.748381 13.884953
RightToeBase 19.148318 -0.000000 -0.000000
LeftUpLeg -106.381199 9.623006 6.310961
LeftLeg 128.961870 -0.000000 -0.000000
LeftFoot 2.686284 -7.229572 9.393450
LeftToeBase 3.721926 -0.000000 -0.000000
Spine 25.128626 10.585220 7.420589
RightShoulder -6.771025 -14.214567 -20.179991
RightArm -57.989812 -74.424227 150.444559
RightForeArm -5.646840 -0.000000 23.389140
RightHand 20.573808 -0.000000 -9.715142
RightHandThumb1 -24.326973 -0.000000 -32.862282
LeftShoulder 5.274508 27.040575 29.907692
LeftArm 5.359648 87.260575 -92.606187
LeftForeArm 35.337948 0.000000 18.949057
LeftHand -36.078286 -0.000000 20.104571
LeftHandThumb1 -26.253704 0.000000 33.147579
Head 49.789357 -5.580737 13.788521
411
root -14.689541 3.661278 4.349840 118.900102 -78.961565 -155.585205
RightUpLeg -101.972642 9.522172 14.359090
RightLeg 126.474342 -0.000000 -0.000000
RightFoot -1.518427 -7.802939 13.947018
RightToeBase 19.118413 -0.000000 -0.000000
LeftUpLeg -106.298665 9.831504 6.431317
LeftLeg 129.493881 -0.000000 -0.000000
LeftFoot 2.385254 -7.178573 9.356540
LeftToeBase 3.823899 -0.000000 -0.000000
Spine 25.179053 10.719566 7.229567
RightShoulder -6.856208 -14.453377 -20.062675
RightArm -57.834640 -74.376674 150.270021
RightForeArm -6.072383 0.000000 23.216531
RightHand 20.622006 0.000000 -9.314698
RightHandThumb1 -24.326973 -0.000000 -32.862282
LeftShoulder 5.340218 27.211526 29.766080
LeftArm 0.772847 87.464114 -97.145957
LeftForeArm 35.143804 -0.000000 18.533605
LeftHand -36.158322 0.000000 20.301634
LeftHandThumb1 -26.253704 0.000000 33.147579
Head 49.717194 -5.528331 13.797205
412
root -14.812268 3.662332 4.340682 119.206990 -78.916138 -156.002571
RightUpLeg -101.961653 9.611141 14.461353
RightLeg 126.937491 -0.000000 -0.000000
RightFoot -1.803092 -7.799084 13.975863
RightToeBase 19.130112 -0.000000 -0.000000
LeftUpLeg -106.291269 9.808142 6.610032
LeftLeg 130.005335 -0.000000 -0.000000
LeftFoot 2.123519 -6.938316 9.200958
LeftToeBase 3.839795 -0.000000 -0.000000
Spine 25.271369 10.641761 7.206032
RightShoulder -6.891869 -14.576925 -20.066566
RightArm -58.060822 -74.331259 150.521803
RightForeArm -6.410077 -0.000000 22.958377
RightHand 20.848064 0.000000 -9.051637
RightHandThumb1 -24.326973 -0.000000 -32.862282
LeftShoulder 5.274344 27.377561 29.494596
LeftArm -4.231312 87.542999 -102.095899
LeftForeArm 35.016848 -0.000000 18.167094
LeftHand -36.148816 -0.000000 20.311954
LeftHandThumb1 -26.253704 0.000000 33.147579
Head 49.611045 -5.412599 13.572533
